<svg xmlns="http://www.w3.org/2000/svg" viewBox="0 0 470 470"><title>logo_rgb_02</title><path d="M230,254.956q0-.718-.073-1.435c-.022-.228-.065-.45-.1-.675-.037-.259-.068-.519-.119-.776s-.12-.5-.183-.752c-.057-.224-.106-.449-.173-.672-.074-.244-.165-.479-.251-.718-.08-.223-.154-.448-.244-.667s-.2-.438-.305-.656-.206-.453-.324-.674-.241-.41-.363-.614-.251-.434-.392-.645-.32-.44-.484-.658c-.13-.173-.25-.351-.389-.52a15.1,15.1,0,0,0-2.1-2.1c-.165-.135-.34-.253-.509-.381-.222-.166-.439-.337-.669-.492-.207-.138-.422-.257-.634-.384s-.412-.256-.626-.37-.437-.213-.657-.317-.444-.218-.674-.313c-.212-.087-.429-.158-.644-.235-.246-.09-.49-.184-.742-.26-.213-.064-.428-.111-.642-.165-.26-.066-.517-.139-.782-.191-.242-.048-.487-.076-.731-.112s-.477-.08-.72-.1c-.432-.042-.864-.06-1.3-.065-.06,0-.118-.009-.178-.009s-.118.008-.178.009c-.433.005-.865.023-1.3.065-.243.024-.48.069-.72.1s-.489.064-.731.112c-.265.052-.522.125-.782.191-.214.054-.429.1-.642.165-.252.076-.5.17-.742.26-.215.077-.432.148-.644.235-.23.095-.45.207-.674.313s-.442.2-.657.317-.418.245-.626.37-.427.246-.634.384c-.23.155-.447.326-.669.492-.169.128-.344.246-.509.381q-.576.472-1.1,1l-40,40a15,15,0,1,0,21.212,21.212L200,291.213V335a15,15,0,0,0,30,0V255C230,254.985,230,254.971,230,254.956Z" style="fill:#6620af"/><path d="M164.394,284.394,175,273.787,145.609,244.4q-.526-.525-1.1-1c-.165-.136-.34-.254-.509-.382-.222-.166-.439-.337-.669-.491-.207-.139-.422-.258-.634-.385s-.412-.256-.626-.37-.437-.213-.657-.317-.444-.217-.674-.313c-.212-.087-.428-.157-.644-.235-.246-.089-.49-.184-.742-.26-.212-.064-.428-.111-.642-.165-.26-.066-.517-.139-.782-.191-.242-.048-.487-.075-.731-.112s-.477-.08-.72-.1c-.432-.042-.864-.06-1.3-.065-.06,0-.118-.009-.178-.009s-.118.008-.178.009c-.432.005-.866.023-1.3.065-.243.024-.48.069-.72.1s-.489.064-.731.112c-.265.052-.522.125-.782.191-.214.054-.429.1-.642.165-.252.076-.5.171-.742.26-.215.078-.432.148-.644.235-.23.1-.45.207-.674.313s-.442.2-.657.317-.418.245-.626.37-.427.246-.634.385c-.23.154-.447.325-.669.491-.169.128-.344.246-.509.382a15.091,15.091,0,0,0-2.1,2.095c-.139.169-.259.347-.389.52-.164.218-.332.432-.484.659-.141.21-.263.429-.392.645s-.25.4-.363.613-.217.448-.323.673-.213.433-.306.658-.163.442-.243.664c-.086.239-.178.476-.252.721-.067.222-.116.447-.173.672-.063.25-.133.5-.184.751s-.081.517-.118.776c-.032.225-.075.447-.1.676-.047.476-.071.955-.073,1.434,0,.015,0,.029,0,.044v80a15,15,0,0,0,30,0V291.213l14.394,14.394A15,15,0,0,1,164.394,284.394Z" style="fill:#f93d77"/><path d="M295,320a25,25,0,0,1,0-50,15,15,0,0,1,0-30,55,55,0,0,0,0,110,15,15,0,0,0,0-30Z" style="fill:#f93d77"/><path d="M295,240a15,15,0,0,0,0,30,25,25,0,0,1,0,50,15,15,0,0,1,0,30,55,55,0,0,0,0-110Z" style="fill:#6620af"/><path d="M295,120a15,15,0,0,0,0,30,25,25,0,0,1,0,50,15,15,0,0,1,0,30,55,55,0,0,0,0-110Z" style="fill:#f93d77"/><path d="M295,200a25,25,0,0,1,0-50,15,15,0,0,1,0-30,55,55,0,0,0,0,110,15,15,0,0,0,0-30Z" style="fill:#ff9739"/><path d="M175.037,230A55.045,55.045,0,0,1,120,175.05a15,15,0,0,1,30,0A25,25,0,0,0,175,200l39.963-.1H215a15,15,0,0,1,.036,30Z" style="fill:#f93d77"/><path d="M135,160.05a15,15,0,0,1,15,15A25.053,25.053,0,0,1,175,150h40a15,15,0,0,0,0-30H175a55.087,55.087,0,0,0-55,55.05A15,15,0,0,1,135,160.05Z" style="fill:#ff9739"/><path d="M220,15A15,15,0,0,1,235,0,235,235,0,0,0,0,235a15,15,0,0,0,30,0C30,121.963,121.962,30,235,30A15,15,0,0,1,220,15Z" style="fill:#ff9739"/><path d="M235,440A204.759,204.759,0,0,1,30,235a15,15,0,0,1-30,0,236.734,236.734,0,0,0,4.773,47.345l0,.013A235.076,235.076,0,0,0,235,470a15,15,0,0,0,0-30Z" style="fill:#f93d77"/><path d="M455,220a15,15,0,0,0-15,15,202.843,202.843,0,0,1-44.274,127.263A206.04,206.04,0,0,1,284.449,434h0A205.932,205.932,0,0,1,235,440a15,15,0,0,1,0,30,236,236,0,0,0,56.653-6.877l.007,0A236.186,236.186,0,0,0,419.233,380.9,232.553,232.553,0,0,0,470,235,15,15,0,0,0,455,220Z" style="fill:#6620af"/><path d="M440,235a15,15,0,0,1,30,0A235,235,0,0,0,235,0a15,15,0,0,0,0,30C348.038,30,440,121.963,440,235Z" style="fill:#f93d77"/></svg>