<svg xmlns="http://www.w3.org/2000/svg" viewBox="0 0 1256.5 470"><title>logo_rgb_01</title><path d="M230,254.956q0-.718-.073-1.435c-.022-.228-.065-.45-.1-.675-.037-.259-.068-.519-.119-.776s-.12-.5-.183-.752c-.057-.224-.106-.449-.173-.672-.074-.244-.165-.479-.251-.718-.08-.223-.154-.448-.244-.667s-.2-.438-.305-.656-.206-.453-.324-.674-.241-.41-.363-.614-.251-.434-.392-.645-.32-.44-.484-.658c-.13-.173-.25-.351-.389-.52a15.1,15.1,0,0,0-2.1-2.1c-.165-.135-.34-.253-.509-.381-.222-.166-.439-.337-.669-.492-.207-.138-.422-.257-.634-.384s-.412-.256-.626-.37-.437-.213-.657-.317-.444-.218-.674-.313c-.212-.087-.429-.158-.644-.235-.246-.09-.49-.184-.742-.26-.213-.064-.428-.111-.642-.165-.26-.066-.517-.139-.782-.191-.242-.048-.487-.076-.731-.112s-.477-.08-.72-.1c-.432-.042-.864-.06-1.3-.065-.06,0-.118-.009-.178-.009s-.118.008-.178.009c-.433.005-.865.023-1.3.065-.243.024-.48.069-.72.1s-.489.064-.731.112c-.265.052-.522.125-.782.191-.214.054-.429.1-.642.165-.252.076-.5.17-.742.26-.215.077-.432.148-.644.235-.23.095-.45.207-.674.313s-.442.2-.657.317-.418.245-.626.37-.427.246-.634.384c-.23.155-.447.326-.669.492-.169.128-.344.246-.509.381q-.576.472-1.1,1l-40,40a15,15,0,1,0,21.212,21.212L200,291.213V335a15,15,0,0,0,30,0V255C230,254.985,230,254.971,230,254.956Z" style="fill:#6620af"/><path d="M164.394,284.394,175,273.787,145.609,244.4q-.526-.525-1.1-1c-.165-.136-.34-.254-.509-.382-.222-.166-.439-.337-.669-.491-.207-.139-.422-.258-.634-.385s-.412-.256-.626-.37-.437-.213-.657-.317-.444-.217-.674-.313c-.212-.087-.428-.157-.644-.235-.246-.089-.49-.184-.742-.26-.212-.064-.428-.111-.642-.165-.26-.066-.517-.139-.782-.191-.242-.048-.487-.075-.731-.112s-.477-.08-.72-.1c-.432-.042-.864-.06-1.3-.065-.06,0-.118-.009-.178-.009s-.118.008-.178.009c-.432.005-.866.023-1.3.065-.243.024-.48.069-.72.1s-.489.064-.731.112c-.265.052-.522.125-.782.191-.214.054-.429.1-.642.165-.252.076-.5.171-.742.26-.215.078-.432.148-.644.235-.23.1-.45.207-.674.313s-.442.2-.657.317-.418.245-.626.37-.427.246-.634.385c-.23.154-.447.325-.669.491-.169.128-.344.246-.509.382a15.091,15.091,0,0,0-2.1,2.095c-.139.169-.259.347-.389.52-.164.218-.332.432-.484.659-.141.21-.263.429-.392.645s-.25.4-.363.613-.217.448-.323.673-.213.433-.306.658-.163.442-.243.664c-.086.239-.178.476-.252.721-.067.222-.116.447-.173.672-.063.25-.133.5-.184.751s-.081.517-.118.776c-.032.225-.075.447-.1.676-.047.476-.071.955-.073,1.434,0,.015,0,.029,0,.044v80a15,15,0,0,0,30,0V291.213l14.394,14.394A15,15,0,0,1,164.394,284.394Z" style="fill:#f93d77"/><path d="M295,320a25,25,0,0,1,0-50,15,15,0,0,1,0-30,55,55,0,0,0,0,110,15,15,0,0,0,0-30Z" style="fill:#f93d77"/><path d="M295,240a15,15,0,0,0,0,30,25,25,0,0,1,0,50,15,15,0,0,1,0,30,55,55,0,0,0,0-110Z" style="fill:#6620af"/><path d="M295,120a15,15,0,0,0,0,30,25,25,0,0,1,0,50,15,15,0,0,1,0,30,55,55,0,0,0,0-110Z" style="fill:#f93d77"/><path d="M295,200a25,25,0,0,1,0-50,15,15,0,0,1,0-30,55,55,0,0,0,0,110,15,15,0,0,0,0-30Z" style="fill:#ff9739"/><path d="M175.037,230A55.045,55.045,0,0,1,120,175.05a15,15,0,0,1,30,0A25,25,0,0,0,175,200l39.963-.1H215a15,15,0,0,1,.036,30Z" style="fill:#f93d77"/><path d="M135,160.05a15,15,0,0,1,15,15A25.053,25.053,0,0,1,175,150h40a15,15,0,0,0,0-30H175a55.087,55.087,0,0,0-55,55.05A15,15,0,0,1,135,160.05Z" style="fill:#ff9739"/><path d="M1076.4,270.429c0-.038-.005-.075-.009-.113-.066-.684-.166-1.358-.292-2.022-.008-.044-.014-.087-.023-.13-.13-.666-.292-1.321-.479-1.965-.016-.053-.03-.106-.046-.159q-.286-.955-.655-1.872c-.028-.07-.054-.141-.083-.211q-.371-.9-.816-1.76c-.043-.083-.084-.167-.128-.249-.3-.573-.636-1.129-.987-1.67-.05-.078-.1-.156-.15-.234q-.565-.847-1.206-1.64c-.038-.047-.073-.095-.111-.142a22.613,22.613,0,0,0-3.17-3.17c-.049-.041-.1-.078-.15-.118q-.788-.635-1.631-1.2c-.081-.054-.163-.1-.245-.157-.537-.348-1.089-.677-1.656-.979-.088-.047-.177-.09-.265-.136q-.852-.439-1.743-.809c-.076-.031-.153-.06-.229-.09q-.909-.363-1.854-.648c-.059-.018-.119-.034-.178-.051-.638-.186-1.286-.346-1.946-.475-.05-.01-.1-.017-.15-.027-.658-.124-1.325-.223-2-.289l-.137-.01c-.672-.061-1.351-.1-2.038-.1h-.044c-.687,0-1.366.037-2.038.1l-.137.01c-.677.066-1.344.165-2,.289-.05.01-.1.017-.15.027-.66.129-1.308.289-1.946.475-.059.017-.119.033-.178.051q-.947.284-1.854.648c-.076.03-.153.059-.229.09q-.892.368-1.743.809c-.088.046-.177.089-.265.136-.568.3-1.119.631-1.657.979-.081.053-.163.1-.244.156q-.845.564-1.631,1.2c-.05.04-.1.077-.15.118-.579.474-1.136.976-1.665,1.5L994,300.686,949.911,256.6c-.529-.529-1.086-1.031-1.665-1.5-.049-.041-.1-.078-.15-.118q-.787-.635-1.631-1.2c-.081-.054-.163-.1-.245-.157-.537-.348-1.089-.677-1.656-.979-.088-.047-.177-.09-.265-.136q-.852-.439-1.743-.809c-.076-.031-.153-.06-.229-.09q-.909-.363-1.854-.648c-.059-.018-.119-.034-.178-.051-.638-.186-1.286-.346-1.946-.475-.05-.01-.1-.017-.15-.027-.658-.124-1.325-.223-2-.289l-.137-.01c-.672-.061-1.351-.1-2.038-.1h-.044c-.687,0-1.366.037-2.038.1l-.137.01c-.677.066-1.344.165-2,.289-.05.01-.1.017-.15.027-.66.129-1.308.289-1.946.475-.059.017-.119.033-.178.051q-.947.284-1.854.648c-.076.03-.153.059-.229.09q-.892.368-1.743.809c-.088.046-.177.089-.265.136-.568.3-1.119.631-1.657.979-.081.053-.163.1-.244.156q-.845.564-1.631,1.2c-.05.04-.1.077-.15.118a22.613,22.613,0,0,0-3.17,3.17c-.038.047-.073.1-.111.142q-.639.792-1.207,1.641c-.051.077-.1.155-.148.232-.352.542-.683,1.1-.988,1.671-.044.082-.085.166-.128.249q-.444.859-.816,1.76c-.029.07-.055.141-.083.211q-.367.916-.655,1.872c-.016.053-.03.106-.045.159-.188.644-.35,1.3-.48,1.966-.009.042-.015.085-.023.127-.126.666-.226,1.34-.292,2.024,0,.038,0,.075-.009.113-.063.684-.1,1.376-.1,2.077v120a22.5,22.5,0,0,0,45,0v-65.68l21.59,21.59a22.5,22.5,0,0,0,31.82,0l21.59-21.59v65.68a22.5,22.5,0,0,0,45,0v-120C1076.5,271.805,1076.464,271.113,1076.4,270.429Z" style="fill:#6620af"/><path d="M220,15A15,15,0,0,1,235,0,235,235,0,0,0,0,235a15,15,0,0,0,30,0C30,121.963,121.962,30,235,30A15,15,0,0,1,220,15Z" style="fill:#ff9739"/><path d="M235,440A204.759,204.759,0,0,1,30,235a15,15,0,0,1-30,0,236.734,236.734,0,0,0,4.773,47.345l0,.013A235.076,235.076,0,0,0,235,470a15,15,0,0,0,0-30Z" style="fill:#f93d77"/><path d="M455,220a15,15,0,0,0-15,15,202.843,202.843,0,0,1-44.274,127.263A206.04,206.04,0,0,1,284.449,434h0A205.932,205.932,0,0,1,235,440a15,15,0,0,1,0,30,236,236,0,0,0,56.653-6.877l.007,0A236.186,236.186,0,0,0,419.233,380.9,232.553,232.553,0,0,0,470,235,15,15,0,0,0,455,220Z" style="fill:#6620af"/><path d="M440,235a15,15,0,0,1,30,0A235,235,0,0,0,235,0a15,15,0,0,0,0,30C348.038,30,440,121.963,440,235Z" style="fill:#f93d77"/><path d="M634,295.006h60a22.5,22.5,0,1,0,0-45H634a82.619,82.619,0,0,0-82.471,81.415q-.029.576-.029,1.159t.03,1.16a82.558,82.558,0,0,0,82.525,81.266l60-.148a22.5,22.5,0,0,0-.054-45h-.056L634,370.006a37.5,37.5,0,1,1,0-75Z" style="fill:#6620af"/><path d="M815.159,250.017q-.576-.03-1.159-.03t-1.159.03a82.582,82.582,0,0,0-81.341,82.47v60.019a22.5,22.5,0,0,0,45,0v-15h75v15a22.5,22.5,0,0,0,45,0V332.487A82.582,82.582,0,0,0,815.159,250.017ZM814,332.506H776.5v-.019a37.5,37.5,0,0,1,75,0v.019Z" style="fill:#6620af"/><path d="M1193.91,250.035q-.576-.029-1.16-.029H1114a22.5,22.5,0,0,0-22.5,22.5v120a22.5,22.5,0,0,0,45,0v-15h56.25a63.741,63.741,0,0,0,1.16-127.471Zm-1.16,82.471H1136.5v-37.5h56.25a18.75,18.75,0,0,1,0,37.5Z" style="fill:#6620af"/><path d="M1076.4,75.424c0-.038-.005-.075-.009-.112-.066-.685-.166-1.358-.292-2.023-.008-.043-.014-.087-.023-.13-.13-.666-.292-1.321-.479-1.965-.016-.053-.03-.106-.046-.159q-.286-.956-.655-1.872c-.028-.07-.054-.141-.083-.211q-.371-.9-.816-1.76c-.043-.083-.084-.167-.128-.249-.3-.572-.636-1.129-.987-1.67-.05-.078-.1-.156-.15-.234q-.565-.847-1.206-1.64c-.038-.047-.073-.095-.111-.142a22.613,22.613,0,0,0-3.17-3.17c-.049-.041-.1-.078-.15-.118q-.788-.635-1.631-1.2c-.081-.054-.163-.1-.245-.157-.537-.348-1.089-.676-1.656-.979-.088-.047-.177-.09-.265-.135-.568-.293-1.148-.565-1.743-.81-.076-.031-.153-.06-.229-.09q-.909-.363-1.854-.648c-.059-.018-.119-.034-.178-.051-.638-.186-1.286-.346-1.946-.475l-.15-.027c-.658-.124-1.325-.223-2-.289l-.137-.01c-.672-.061-1.351-.1-2.038-.1h-.044c-.687,0-1.366.037-2.038.1l-.137.01c-.677.066-1.344.165-2,.289l-.15.027c-.66.129-1.308.289-1.946.475-.059.017-.119.033-.178.051q-.947.283-1.854.648c-.076.03-.153.059-.229.09-.6.245-1.175.517-1.743.81-.088.045-.177.088-.265.135-.568.3-1.119.631-1.657.979-.081.053-.163.1-.244.157q-.845.563-1.631,1.2c-.05.04-.1.077-.15.118-.579.475-1.136.976-1.665,1.5L994,105.681,949.911,61.592c-.529-.529-1.086-1.03-1.665-1.5-.049-.041-.1-.078-.15-.118q-.787-.635-1.631-1.2c-.081-.054-.163-.1-.245-.157-.537-.348-1.089-.676-1.656-.979-.088-.047-.177-.09-.265-.135-.568-.293-1.148-.565-1.743-.81-.076-.031-.153-.06-.229-.09q-.909-.363-1.854-.648c-.059-.018-.119-.034-.178-.051-.638-.186-1.286-.346-1.946-.475l-.15-.027c-.658-.124-1.325-.223-2-.289l-.137-.01c-.672-.061-1.351-.1-2.038-.1h-.044c-.687,0-1.366.037-2.038.1l-.137.01c-.677.066-1.344.165-2,.289l-.15.027c-.66.129-1.308.289-1.946.475-.059.017-.119.033-.178.051q-.947.283-1.854.648c-.076.03-.153.059-.229.09-.595.245-1.175.517-1.743.81-.088.045-.177.088-.265.135-.568.3-1.119.631-1.657.979-.081.053-.163.1-.244.157q-.845.563-1.631,1.2c-.05.04-.1.077-.15.118a22.613,22.613,0,0,0-3.17,3.17c-.038.047-.073.095-.111.142q-.639.792-1.207,1.641c-.051.077-.1.155-.148.232-.352.542-.683,1.1-.988,1.671-.044.082-.085.166-.128.249q-.444.86-.816,1.76c-.029.07-.055.141-.083.211q-.367.916-.655,1.872c-.016.053-.03.106-.045.159-.188.644-.35,1.3-.48,1.966-.009.042-.015.085-.023.127-.126.666-.226,1.34-.292,2.025,0,.037,0,.074-.009.112-.063.684-.1,1.376-.1,2.077v120a22.5,22.5,0,0,0,45,0v-65.68l21.59,21.59a22.5,22.5,0,0,0,31.82,0l21.59-21.59V197.5a22.5,22.5,0,0,0,45,0V77.5C1076.5,76.8,1076.464,76.108,1076.4,75.424Z" style="fill:#f93d77"/><path d="M1256.5,137.5a82.583,82.583,0,0,0-81.341-82.471Q1174.583,55,1174,55t-1.159.029a82.571,82.571,0,0,0-81.312,81.311c-.019.385-.029.771-.029,1.16s.01.775.029,1.16a82.571,82.571,0,0,0,81.312,81.311q.576.029,1.159.029t1.159-.029A82.583,82.583,0,0,0,1256.5,137.5ZM1174,175a37.5,37.5,0,1,1,37.5-37.5A37.542,37.542,0,0,1,1174,175Z" style="fill:#f93d77"/><path d="M896.5,137.5A82.583,82.583,0,0,0,815.159,55.03Q814.583,55,814,55t-1.159.029a82.571,82.571,0,0,0-81.312,81.311c-.019.385-.029.771-.029,1.16s.01.775.029,1.16a82.571,82.571,0,0,0,81.312,81.311q.576.029,1.159.029t1.159-.029A82.583,82.583,0,0,0,896.5,137.5ZM814,175a37.5,37.5,0,1,1,37.5-37.5A37.542,37.542,0,0,1,814,175Z" style="fill:#ff9739"/><path d="M694,174.854h-.056L634,175a37.5,37.5,0,1,1,0-75h60a22.5,22.5,0,0,0,0-45H634a82.619,82.619,0,0,0-82.471,81.415c-.019.384-.029.771-.029,1.159s.01.776.03,1.16A82.558,82.558,0,0,0,634.055,220l60-.147a22.5,22.5,0,0,0-.054-45Z" style="fill:#ff9739"/></svg>