<?xml version="1.0" encoding="utf-8"?>
<!-- Generator: Adobe Illustrator 25.4.1, SVG Export Plug-In . SVG Version: 6.00 Build 0)  -->
<svg version="1.1" id="Ebene_1" xmlns="http://www.w3.org/2000/svg" xmlns:xlink="http://www.w3.org/1999/xlink" x="0px" y="0px"
	 viewBox="0 0 294 94" style="enable-background:new 0 0 294 94;" xml:space="preserve">
<style type="text/css">
	.st0{clip-path:url(#SVGID_00000072272990859688163380000017754440069376873110_);}
	.st1{fill:#36B9C4;}
	.st2{fill:#101727;}
	.st3{fill-rule:evenodd;clip-rule:evenodd;fill:#101727;}
</style>
<g>
	<g>
		<defs>
			
				<rect id="SVGID_1_" x="13" y="17.8" transform="matrix(0.7071 -0.7071 0.7071 0.7071 -20.8719 43.6027)" width="58.4" height="58.4"/>
		</defs>
		<clipPath id="SVGID_00000003074084867628769750000014836342755621490594_">
			<use xlink:href="#SVGID_1_"  style="overflow:visible;"/>
		</clipPath>
		<g style="clip-path:url(#SVGID_00000003074084867628769750000014836342755621490594_);">
			<path class="st1" d="M10.4,37.4c2.5-2.5,3.8-3.8,5.3-4.3c1.3-0.4,2.7-0.4,3.9,0c1.5,0.5,2.7,1.7,5.3,4.3l3.5,3.5
				c2.1,2.1,3.2,3.2,3.6,4.4c0.4,1.1,0.4,2.2,0,3.3c-0.4,1.2-1.5,2.3-3.6,4.4l-3.5,3.5c-2.5,2.5-3.8,3.8-5.3,4.3
				c-1.3,0.4-2.7,0.4-3.9,0c-1.5-0.5-2.7-1.7-5.3-4.3l-2.3-2.3c-2.5-2.5-3.8-3.8-4.3-5.3c-0.4-1.3-0.4-2.7,0-3.9
				c0.5-1.5,1.7-2.7,4.3-5.3L10.4,37.4z"/>
			<path class="st2" d="M72.2,35.7L46.7,10.2c-2.5-2.5-6.5-2.5-9,0L29.9,18c-2.5,2.5-2.5,6.5,0,9c0,0,13.5,13,15.6,16s2.1,5,0,8
				S29.9,67,29.9,67c-2.5,2.5-2.5,6.5,0,9l7.7,7.7c2.5,2.5,6.5,2.5,9,0l25-25.1c5.3-5.3,8-8.2,8-11.7C79.7,43.6,77.2,40.7,72.2,35.7
				z"/>
		</g>
	</g>
</g>
<path class="st2" d="M288.9,33.2c-1,1.1-1.6,1.6-2,1.9c-1.1,0.7-1.7,0.8-2.9,0.5c-0.5-0.1-1.5-0.6-3.4-1.5c-1.7-0.8-3.6-1.3-5.5-1.3
	c-1.5,0-2.9,0.3-4.1,0.9c-1.2,0.6-1.8,1.6-1.8,3c0,1.3,0.7,2.3,2,2.9c1.4,0.6,3.7,1.2,6.7,1.9c1.8,0.4,3.6,0.9,5.4,1.6
	c1.9,0.7,3.5,1.6,5,2.8s2.7,2.6,3.6,4.2c0.9,1.7,1.4,3.7,1.4,6c0,3-0.6,5.6-1.8,7.7c-1.2,2.1-2.8,3.7-4.8,5
	c-1.9,1.3-4.1,2.2-6.6,2.8c-2.4,0.6-4.9,0.9-7.3,0.9c-3.9,0-7.8-0.6-11.6-1.8c-3-1-5.7-2.5-7.9-4.3c-0.7-0.6-1-0.8-1.1-1.3
	c0-0.4,0.3-0.8,0.9-1.5l3.1-3.3c1.9-2,2.8-2.9,3.8-3.1c1-0.2,2.6,0.6,5.8,2.3c0,0,0,0,0.1,0c2.1,1,4.2,1.5,6.6,1.5
	c1.3,0,2.5-0.3,3.8-0.9c1.3-0.6,1.9-1.7,1.9-3.3c0-1.5-0.8-2.6-2.3-3.3s-4-1.4-7.2-2.2c-1.7-0.4-3.3-0.9-5-1.5s-3.2-1.5-4.5-2.6
	s-2.3-2.4-3.2-4c-0.8-1.6-1.3-3.5-1.3-5.8c0-2.9,0.6-5.3,1.8-7.3c1.2-2.1,2.8-3.7,4.7-5c1.9-1.3,4-2.2,6.4-2.8c2.4-0.6,4.7-1,7-1
	c3.6,0,7.1,0.6,10.5,1.7c2.8,0.9,5.2,2.1,7.2,3.7c0.7,0.6,1.1,0.8,1.1,1.3c0,0.4-0.3,0.8-1,1.5L288.9,33.2z"/>
<path class="st3" d="M244.2,47c0,14-10.8,25.3-24,25.3c-5.2,0-10.1-2-14-5.2v1.5v18.2c0,1.6,0,2.4-0.5,3s-1.3,0.7-2.8,1l-9.4,1.6
	c-1.1,0.2-1.6,0.3-2,0s-0.4-0.9-0.4-2V25c0-0.9,0-1.4,0.3-1.7s0.8-0.3,1.7-0.3h9c1.2,0,2.2,0.8,2.6,1.9l0.7,2.3
	c0,0.1,0.1,0.2,0.1,0.2l0,0c4.1-3.5,9.2-5.8,14.7-5.8C233.5,21.7,244.2,33,244.2,47z M216.8,59.4c6.7,0,12.1-5.5,12.1-12.2
	S223.5,35,216.8,35c-6.7,0-12.1,5.5-12.1,12.2C204.7,54,210.1,59.4,216.8,59.4z"/>
<path class="st2" d="M164.9,69.7c-0.2,0.6-0.3,1-0.6,1.2C164,71,163.7,71,163,71h-13c-0.7,0-1.1,0-1.3-0.2c-0.3-0.2-0.4-0.5-0.6-1.2
	l-9-28.4c0-0.1-0.1-0.1-0.1-0.1c-0.1,0-0.1,0-0.1,0.1l-8.8,28.4c-0.2,0.7-0.3,1-0.6,1.2s-0.6,0.2-1.3,0.2h-13c-0.7,0-1,0-1.3-0.2
	s-0.4-0.5-0.6-1.2L98,25.7c-0.4-1.2-0.6-1.8-0.3-2.2c0.3-0.5,1-0.5,2.2-0.5h8.1c2.9,0,4.4,0,5.5,0.8s1.5,2.2,2.2,5.1l6.6,24.3
	c0,0.1,0.1,0.1,0.2,0.1s0.2-0.1,0.2-0.1l7.3-25.9c0.6-2.1,0.9-3.2,1.7-3.8c0.8-0.6,1.9-0.6,4.1-0.6h6.9c2.2,0,3.2,0,4,0.6
	s1.1,1.6,1.7,3.7l7.6,26c0,0.1,0.1,0.1,0.1,0.1c0.1,0,0.1,0,0.1-0.1l6.7-24.4c0.8-2.8,1.2-4.2,2.2-5.1c1.1-0.8,2.5-0.8,5.5-0.8h7.5
	c1.3,0,1.9,0,2.2,0.4s0.1,1-0.3,2.2L164.9,69.7z"/>
</svg>
